<?xml version="1.0" encoding="utf-8"?>
<!-- Uploaded to: SVG Repo, www.svgrepo.com, Generator: SVG Repo Mixer Tools -->
<svg width="800px" height="800px" viewBox="0 0 128 128" xmlns="http://www.w3.org/2000/svg" xmlns:xlink="http://www.w3.org/1999/xlink" aria-hidden="true" role="img" class="iconify iconify--noto" preserveAspectRatio="xMidYMid meet">
<radialGradient id="IconifyId17ecdb2904d178eab7786" cx="64" cy="-1730.667" r="58.835" gradientTransform="matrix(1 0 0 -1 0 -1666.667)" gradientUnits="userSpaceOnUse">
<stop offset=".5" stop-color="#fde030">
</stop>
<stop offset=".919" stop-color="#f7c02b">
</stop>
<stop offset="1" stop-color="#f4a223">
</stop>
</radialGradient>
<path d="M64 6.25c-31.1 0-59.9 20.7-59.9 57.7c0 37.3 28.8 57.8 59.9 57.8s59.9-20 59.9-57.8C123.8 26.45 95 6.25 64 6.25z" fill="url(#IconifyId17ecdb2904d178eab7786)">
</path>
<circle cx="34.56" cy="51.99" r="22.96" fill="#4fc3f7">
</circle>
<circle cx="93.39" cy="51.99" r="22.96" fill="#4fc3f7">
</circle>
<g fill="#e1f5fe">
<path d="M23.907 34.645L26.6 32.27l25.424 28.834l-2.692 2.374z">
</path>
<path d="M21.66 36.63l-6.24 5.82l25.42 28.84l6.24-5.83z">
</path>
</g>
<g fill="#e1f5fe">
<path d="M84.468 34.638l2.693-2.374l25.424 28.833l-2.693 2.375z">
</path>
<path d="M82.21 36.63l-6.24 5.82l25.42 28.84l6.25-5.83z">
</path>
</g>
<radialGradient id="IconifyId17ecdb2904d178eab7787" cx="63.972" cy="88.409" r="33.822" gradientTransform="matrix(1 0 0 .4617 0 47.587)" gradientUnits="userSpaceOnUse">
<stop offset=".032">
</stop>
<stop offset="1" stop-color="#424242">
</stop>
</radialGradient>
<path d="M96.68 86.83c.33-2.58-.58-5.39-2.1-7.43c-.2-.27-.63-.14-.64.19c-.07 1.71-.68 5.16-4.37 6.44c-6.97 2.42-10.42-9.38-20.51-8.43c-2.19.21-3.86 1.18-5.07 2.62l-.02-.02l-.02.02c-1.21-1.44-2.88-2.42-5.07-2.62c-10.1-.95-13.55 10.85-20.51 8.43c-3.69-1.28-4.3-4.73-4.37-6.44c-.01-.33-.44-.46-.64-.19c-1.52 2.04-2.44 4.85-2.1 7.43c.65 5 5.47 6.48 5.47 6.48c-1.34 1.26-2.63 1.59-4.18 1.47c-.5-.04-.82.56-.51.95c3.63 4.68 10.3 6.15 15.17 3.1c-.29.94-.75 1.82-1.34 2.56c-.24.31-.13.77.24.92c6.22 2.51 12.68 1.36 17.87-3.68c5.18 5.04 11.65 6.19 17.87 3.68c.36-.15.48-.61.24-.92a7.829 7.829 0 0 1-1.34-2.56c4.86 3.05 11.54 1.58 15.17-3.1c.31-.4-.01-.99-.51-.95c-1.56.12-2.84-.21-4.18-1.47c-.02 0 4.81-1.48 5.45-6.48z" fill="url(#IconifyId17ecdb2904d178eab7787)">
</path>
<radialGradient id="IconifyId17ecdb2904d178eab7788" cx="36.078" cy="33.319" r="22.067" gradientTransform="matrix(1 .00626 -.00425 .6791 1.667 10.585)" gradientUnits="userSpaceOnUse">
<stop offset=".032">
</stop>
<stop offset=".966" stop-color="#424242">
</stop>
</radialGradient>
<path d="M27.46 19.97c2.16 1.26 3.25 3.82 3.25 3.82s-3.09-2.29-8.14 1.07c-2.7 1.79-2.8 3.18-6.01 4.34c-.36.13-.47.61-.18.87c1.76 1.56 3.74 2.87 5.95 3.68c3.7 1.36 7.47-.63 11.29-.75c5.12-.17 11.75 1.28 16.3 3.86a16.81 16.81 0 0 0-.16-11.45c-1.26-3.29-3.59-6.15-6.54-8.07a.524.524 0 0 0-.81.51l.8 5.42c-2.3-3.49-5.91-5.59-10.12-5.45c-1.72.06-3.95.39-5.62 1.23c-.36.19-.36.71-.01.92z" fill="url(#IconifyId17ecdb2904d178eab7788)">
</path>
<radialGradient id="IconifyId17ecdb2904d178eab7789" cx="58.82" cy="37.618" r="20.449" gradientTransform="matrix(-1 .00626 .00325 .5192 149.797 13.07)" gradientUnits="userSpaceOnUse">
<stop offset=".032">
</stop>
<stop offset="1" stop-color="#424242">
</stop>
</radialGradient>
<path d="M100.54 19.97c-2.16 1.26-3.25 3.82-3.25 3.82s3.09-2.29 8.14 1.07c2.7 1.79 2.8 3.18 6.01 4.34c.36.13.47.61.18.87c-1.76 1.56-3.74 2.87-5.95 3.68c-3.7 1.36-7.47-.63-11.29-.75c-5.12-.17-11.75 1.28-16.3 3.86a16.81 16.81 0 0 1 .16-11.45c1.26-3.29 3.59-6.15 6.54-8.07c.38-.25.87.06.81.51l-.8 5.42c2.3-3.49 5.91-5.59 10.12-5.45c1.72.06 3.95.39 5.62 1.23c.36.19.36.71.01.92z" fill="url(#IconifyId17ecdb2904d178eab7789)">
</path>
<g>
<path d="M34.56 34.37c9.71 0 17.62 7.9 17.62 17.62s-7.9 17.62-17.62 17.62s-17.62-7.9-17.62-17.62s7.9-17.62 17.62-17.62m0-5.34c-12.68 0-22.96 10.28-22.96 22.96s10.28 22.96 22.96 22.96s22.96-10.28 22.96-22.96s-10.28-22.96-22.96-22.96z" fill="#212121">
</path>
<path d="M93.39 34.37c9.71 0 17.62 7.9 17.62 17.62s-7.9 17.62-17.62 17.62s-17.62-7.9-17.62-17.62s7.91-17.62 17.62-17.62m0-5.34c-12.68 0-22.96 10.28-22.96 22.96s10.28 22.96 22.96 22.96s22.96-10.28 22.96-22.96s-10.28-22.96-22.96-22.96z" fill="#212121">
</path>
<linearGradient id="IconifyId17ecdb2904d178eab7790" gradientUnits="userSpaceOnUse" x1="113.663" y1="52.195" x2="123.835" y2="52.195">
<stop offset=".446" stop-color="#212121">
</stop>
<stop offset=".748" stop-color="#323232">
</stop>
<stop offset=".966" stop-color="#424242">
</stop>
</linearGradient>
<path d="M115.17 59.44c1.02-2.91 5.68-4.38 7.92-4.93c.71-.17 1.22-.81 1.22-1.54v-3.15c0-.85-.66-1.54-1.51-1.58c-2.26-.11-6.39-.68-7.5-3.32c-1.57-3.7-1.48 18.39-.13 14.52z" fill="url(#IconifyId17ecdb2904d178eab7790)">
</path>
<path d="M72.39 42.8c-.01 0-.34 1.31-2.17 1.31c-1.79 0-2.63-1.48-6.22-1.48s-4.43 1.48-6.22 1.48c-1.83 0-2.17-1.3-2.17-1.31c-.56-.34-.25 6.07-.25 6.07c.19.63 1.26 6.87 1.85 6.95c0 0 2.45-4.31 6.79-4.36c4.33.05 6.79 4.36 6.79 4.36c.59-.08 1.66-6.32 1.85-6.95c0 0 .3-6.41-.25-6.07z" fill="#212121">
</path>
<g>
<linearGradient id="IconifyId17ecdb2904d178eab7791" gradientUnits="userSpaceOnUse" x1="-17.129" y1="52.195" x2="-6.958" y2="52.195" gradientTransform="matrix(-1 0 0 1 -2.792 0)">
<stop offset=".446" stop-color="#212121">
</stop>
<stop offset=".748" stop-color="#323232">
</stop>
<stop offset=".966" stop-color="#424242">
</stop>
</linearGradient>
<path d="M12.83 59.44c-1.02-2.91-5.68-4.38-7.92-4.93c-.71-.17-1.22-.81-1.22-1.54v-3.15c0-.85.66-1.54 1.51-1.58c2.26-.11 6.39-.68 7.5-3.32c1.57-3.7 1.48 18.39.13 14.52z" fill="url(#IconifyId17ecdb2904d178eab7791)">
</path>
</g>
</g>
<g>
<linearGradient id="IconifyId17ecdb2904d178eab7792" gradientUnits="userSpaceOnUse" x1="64" y1="20.833" x2="64" y2="56.889">
<stop offset=".5" stop-color="#fde030">
</stop>
<stop offset="1" stop-color="#f7c02b">
</stop>
</linearGradient>
<path d="M72.57 61.58c-2.32-7.75-3.55-12.34-8.55-12.36h-.06c-4.99.01-6.22 4.61-8.55 12.36c-2.8 9.32-12.15 16.01-7.48 22.32c1.68 2.26 4.01 2.22 5.43 2.58c1.4.36 4.18 6.84 10.6 6.84h.06c6.42 0 9.2-6.47 10.6-6.84c1.42-.37 3.75-.32 5.43-2.58c4.67-6.32-4.68-13-7.48-22.32z" fill="url(#IconifyId17ecdb2904d178eab7792)">
</path>
<radialGradient id="IconifyId17ecdb2904d178eab7793" cx="58.342" cy="82.85" r="11.507" gradientTransform="matrix(.9622 .2722 -.3237 1.1443 29.02 -27.835)" gradientUnits="userSpaceOnUse">
<stop offset="0" stop-color="#b36e00">
</stop>
<stop offset=".713" stop-color="#c77b00" stop-opacity=".287">
</stop>
<stop offset="1" stop-color="#d18100" stop-opacity="0">
</stop>
</radialGradient>
<path d="M57.25 68.5c1.75-3.71 2.21-10.29 2.21-10.29s-1.63 1.81-4.95 6.62c-.67.98-1.98 3.08-2.75 4.37c-3.06 5.17-7.09 10.27-3.81 14.69c1.68 2.26 4.01 2.22 5.43 2.58c.43.11.99.79 1.73 1.68c0 0-2.19-3.91-1.73-7.91s2.12-8.03 3.87-11.74z" fill="url(#IconifyId17ecdb2904d178eab7793)">
</path>
<radialGradient id="IconifyId17ecdb2904d178eab7794" cx="69.838" cy="82.85" r="11.507" gradientTransform="matrix(-.9622 .2722 .3237 1.1443 110.07 -30.964)" gradientUnits="userSpaceOnUse">
<stop offset="0" stop-color="#b36e00">
</stop>
<stop offset=".713" stop-color="#c77b00" stop-opacity=".287">
</stop>
<stop offset="1" stop-color="#d18100" stop-opacity="0">
</stop>
</radialGradient>
<path d="M70.78 68.5c-1.75-3.71-2.21-10.29-2.21-10.29s1.63 1.81 4.95 6.62c.67.98 1.98 3.08 2.75 4.37c3.06 5.17 7.09 10.27 3.81 14.69c-1.68 2.26-4.01 2.22-5.43 2.58c-.43.11-.99.79-1.73 1.68c0 0 2.19-3.91 1.73-7.91s-2.12-8.03-3.87-11.74z" fill="url(#IconifyId17ecdb2904d178eab7794)">
</path>
</g>
</svg>